<?xml version="1.0" encoding="UTF-8"?>
<svg version="1.1" xmlns="http://www.w3.org/2000/svg" width="743" height="500">
<path d="M0 0 C245.19 0 490.38 0 743 0 C743 165 743 330 743 500 C497.81 500 252.62 500 0 500 C0 335 0 170 0 0 Z " fill="#FDF5FE" transform="translate(0,0)"/>
<path d="M0 0 C2.90843892 2.02963004 4.67923871 3.04983492 8.25 2.75 C9.92757361 2.42727787 11.59336864 2.04210349 13.25 1.625 C15.18753114 1.15029468 17.12521247 0.67616878 19.06445312 0.20849609 C20.4068431 -0.12092665 21.74603222 -0.46394927 23.08007812 -0.82568359 C37.71089711 -4.56869924 52.94691858 -4.6632436 67.9453125 -4.5703125 C69.75804486 -4.56656903 71.57077928 -4.56372839 73.3835144 -4.56173706 C78.0884183 -4.55420541 82.79319302 -4.53465081 87.49804688 -4.5123291 C92.32550307 -4.49164117 97.15298073 -4.48268697 101.98046875 -4.47265625 C111.4037017 -4.45139182 120.82683999 -4.41738735 130.25 -4.375 C130.33952749 1.84329183 130.25684948 7.85328094 129.37109375 14.0234375 C128.52927594 20.20595444 127.85279995 26.38787951 127.28515625 32.6015625 C127.16655746 33.89288589 127.16655746 33.89288589 127.04556274 35.21029663 C126.88331552 36.9838379 126.72160949 38.75742875 126.5604248 40.53106689 C125.15307982 55.9650888 123.53841878 71.29259416 121.25 86.625 C135.77 86.625 150.29 86.625 165.25 86.625 C164.0828795 100.630446 164.0828795 100.630446 162.9375 107.625 C162.80923828 108.42405762 162.68097656 109.22311523 162.54882812 110.04638672 C161.43443322 116.82914341 160.10329862 123.56180958 158.73120117 130.29638672 C155.33246882 146.98401686 152.80620856 163.78928153 150.25 180.625 C164.11 180.625 177.97 180.625 192.25 180.625 C191.59 183.595 190.93 186.565 190.25 189.625 C189.63754061 192.644505 189.03260743 195.66461422 188.4375 198.6875 C187.17520328 205.05665801 185.88017157 211.41737412 184.53955078 217.77050781 C182.10660663 229.30578071 179.81046405 240.86503458 177.5625 252.4375 C177.41211273 253.21085693 177.26172546 253.98421387 177.10678101 254.78100586 C175.43501571 263.38617489 173.7875882 271.9946285 172.25 280.625 C172.52038086 280.10405762 172.79076172 279.58311523 173.06933594 279.04638672 C178.78907185 268.04080936 184.59562184 257.08977175 190.55566406 246.21240234 C194.48736 239.03447888 198.37612105 231.83427706 202.25 224.625 C206.53553743 216.65170326 210.84230566 208.69093964 215.1875 200.75 C219.73255641 192.44065178 224.22096528 184.10174572 228.6875 175.75 C233.62910247 166.51175911 238.58064225 157.27911238 243.5625 148.0625 C244.10769287 147.0513916 244.65288574 146.0402832 245.21459961 144.99853516 C245.96882202 143.60513916 245.96882202 143.60513916 246.73828125 142.18359375 C247.17696533 141.37204834 247.61564941 140.56050293 248.06762695 139.72436523 C249.05086699 137.97857108 250.13858258 136.29212613 251.25 134.625 C235.41 134.295 219.57 133.965 203.25 133.625 C204.27480469 129.39300781 205.29960937 125.16101563 206.35546875 120.80078125 C207.18809722 117.36140374 208.02064582 113.92200693 208.85314178 110.48259735 C209.72326065 106.88784416 210.59351013 103.29312273 211.46411133 99.69848633 C212.46999263 95.54518837 213.47543747 91.39178498 214.48046875 87.23828125 C214.64493374 86.55863438 214.80939873 85.8789875 214.9788475 85.17874527 C217.20948243 75.95810799 219.42748665 66.73459375 221.60624695 57.50154114 C223.09887908 51.19376215 224.67740011 44.91539954 226.25 38.625 C210.41 38.625 194.57 38.625 178.25 38.625 C180.60013624 24.52418256 180.60013624 24.52418256 182.125 17.6875 C182.27324219 16.99205078 182.42148437 16.29660156 182.57421875 15.58007812 C183.60593557 10.92057657 184.9094821 6.38404312 186.32470703 1.82592773 C186.6851712 0.66254379 187.04563538 -0.50084015 187.41702271 -1.69947815 C187.69190521 -2.58240036 187.96678772 -3.46532257 188.25 -4.375 C200.8030899 -4.39825125 213.35617461 -4.41597994 225.90928173 -4.42681217 C231.73925224 -4.43201316 237.56920794 -4.43905982 243.39916992 -4.45043945 C249.03370114 -4.46136781 254.66821817 -4.46729777 260.30275917 -4.46987724 C262.44394466 -4.47171366 264.58512944 -4.47529945 266.72630882 -4.48073006 C320.76672649 -4.61224171 365.87143213 13.55167404 404.4375 51.625 C409.14027616 56.3143183 413.3735719 61.2198397 417.25 66.625 C421.43807302 66.0204716 425.24532635 65.04112056 429.25 63.6875 C441.13501484 59.97343286 456.83163163 56.36163243 468.6875 61.625 C473.92910563 64.64703321 478.15832589 68.7418639 479.83203125 74.6953125 C480.125 76.625 480.125 76.625 480.25 79.625 C481.508125 79.99625 482.76625 80.3675 484.0625 80.75 C491.27530062 83.15426687 500.08377189 86.9243345 505.25 92.625 C505.75 95.75 505.75 95.75 505.25 98.625 C502.25 100.625 502.25 100.625 499.40625 100.46484375 C495.94091123 99.54275485 493.69134071 98.2202369 490.75 96.1875 C486.9906625 93.60025479 483.63911323 91.90946108 479.25 90.625 C478.5075 92.1409375 478.5075 92.1409375 477.75 93.6875 C473.15745104 101.62008457 465.98242887 106.2551373 457.25 108.625 C450.75674635 109.84136708 445.45076977 109.96751302 439.25 107.625 C439.49234375 108.22183594 439.7346875 108.81867188 439.984375 109.43359375 C455.31269126 149.11035083 451.53381157 194.43190466 435.33349609 233.22802734 C427.45072518 250.66674858 416.04759488 266.37605236 402.76904297 280.0546875 C401.27912575 281.59489122 399.81273108 283.1549451 398.34765625 284.71875 C391.07614887 292.35945631 383.10181374 298.8747169 374.25 304.625 C373.59 304.625 372.93 304.625 372.25 304.625 C375.01290996 309.93030196 378.07627758 314.95091459 381.421875 319.91015625 C381.79227905 320.46029388 382.16268311 321.01043152 382.54431152 321.57723999 C384.08290849 323.86003618 385.623249 326.14114125 387.18603516 328.4074707 C395.64411821 340.7051937 395.64411821 340.7051937 395.25 347.625 C393.53405145 352.58354173 390.70080262 355.43514477 386.8125 358.875 C385.86503906 359.72578125 384.91757812 360.5765625 383.94140625 361.453125 C379.32639832 365.17728235 376.02261074 366.12943069 370.14941406 365.99951172 C364.4674454 365.26558279 359.36790226 362.90372994 354.125 360.6875 C352.25898025 359.92198437 350.39050338 359.16267483 348.52198792 358.40327454 C347.25912846 357.88930555 345.99711239 357.37325944 344.73594666 356.85514832 C337.99058109 354.08723666 331.16277956 351.55490415 324.31208944 349.06141603 C319.29744625 347.21495015 314.37677858 345.27227623 309.51462555 343.05298805 C294.35302059 336.24910441 281.52852497 334.1467978 265.02148438 334.23583984 C262.61140312 334.21238179 260.20135895 334.18481822 257.79136658 334.15353394 C251.32091852 334.08310698 244.8519147 334.07524572 238.38114357 334.08415556 C234.31296032 334.08834672 230.24499332 334.07308267 226.17686462 334.05321121 C224.79724297 334.04660119 223.41762131 334.03999403 222.03799963 334.03338969 C221.35063717 334.03009613 220.6632747 334.02680257 219.95508307 334.0234092 C207.02926116 333.9641859 194.10408204 333.97014921 181.17819279 333.99611755 C169.4601001 334.01752743 157.744307 333.95367123 146.02671951 333.84920017 C133.89032526 333.7418639 121.7550154 333.69627822 109.61814165 333.71288073 C102.84617766 333.7210726 96.07656693 333.70577786 89.30497742 333.62766647 C57.32626235 333.28822935 31.25470787 335.7231837 2.25120544 349.74603653 C-3.43033204 352.46945813 -9.31545326 354.58056956 -15.25 356.6875 C-22.66842924 359.41992325 -30.00731318 362.28506932 -37.22851562 365.50805664 C-42.7984393 367.91026849 -48.06816389 369.28280886 -54.0625 367.8125 C-60.44929724 364.64866989 -67.9972235 358.2214342 -70.75 351.625 C-71.84431709 345.57154416 -70.58337067 341.36564023 -67.19433594 336.34790039 C-66.44845215 335.3094397 -66.44845215 335.3094397 -65.6875 334.25 C-64.67020504 332.76197018 -63.65327769 331.27368898 -62.63671875 329.78515625 C-62.13962402 329.07246582 -61.6425293 328.35977539 -61.13037109 327.62548828 C-59.33876635 325.02902396 -57.66523376 322.3663543 -56 319.6875 C-53.17305613 315.21093513 -50.15090884 310.90097368 -47.03515625 306.62109375 C-45.56955347 304.74040359 -45.56955347 304.74040359 -45.75 302.625 C-46.9165361 302.04506287 -48.0830722 301.46512573 -49.28495789 300.86761475 C-60.27950576 295.40075191 -71.27087745 289.92755037 -82.25917339 284.44813156 C-87.90842232 281.63133405 -93.5587655 278.81677944 -99.21166992 276.00732422 C-104.66725005 273.29583526 -110.11987572 270.57848968 -115.57050514 267.85706329 C-117.65025558 266.81995901 -119.73106086 265.78496727 -121.81293297 264.7521286 C-124.72926725 263.30485375 -127.64175651 261.85010491 -130.5534668 260.39355469 C-131.41445984 259.96845108 -132.27545288 259.54334747 -133.16253662 259.10536194 C-142.62411682 254.35011752 -147.01975693 249.65092199 -150.45172119 239.56219482 C-152.02637711 234.64164446 -153.44506514 229.68007502 -154.8269043 224.70239258 C-155.56308819 222.06038912 -156.32247165 219.42581538 -157.08398438 216.79101562 C-157.56390768 215.08893795 -158.04247027 213.3864759 -158.51953125 211.68359375 C-158.74445755 210.90833847 -158.96938385 210.13308319 -159.2011261 209.33433533 C-161.3735049 201.37402035 -161.81791167 194.16229031 -158.046875 186.671875 C-154.7060554 181.39901514 -149.5457042 178.47781698 -144.40771484 175.15478516 C-125.81928806 163.08036964 -115.55719339 147.76614475 -110.72314453 126.14013672 C-107.89137943 113.48405131 -103.68056235 102.14015371 -97.75 90.625 C-97.24315674 89.63983398 -97.24315674 89.63983398 -96.72607422 88.63476562 C-86.98395551 70.05338524 -73.65353485 55.18981815 -58.75 40.625 C-62.13076638 35.12740117 -65.48273281 29.84592211 -69.6875 24.9375 C-71.94211561 22.08607438 -73.27509827 20.03595064 -73.5625 16.375 C-72.13818189 9.80122409 -65.51980703 6.65578676 -60.12841797 3.12011719 C-40.90592771 -9.14628488 -19.8271867 -14.63109639 0 0 Z " fill="#D0DDF1" transform="translate(206.75,84.375)"/>
<path d="M0 0 C8.00922272 3.21414158 15.6123902 6.80810239 23.1875 10.9375 C41.47907531 20.7791728 61.81756724 27.36882058 82.5078125 29.54296875 C83.33023438 29.69378906 84.15265625 29.84460938 85 30 C85.495 30.99 85.495 30.99 86 32 C68.5983853 39.28370022 51.04459503 46.06756912 33.3515625 52.60766602 C31.72121782 53.21203466 30.09100768 53.81676637 28.4609375 54.421875 C27.66894958 54.71505112 26.87696167 55.00822723 26.06097412 55.31028748 C22.10228601 56.78905891 18.1804023 58.32378378 14.29003906 59.97460938 C13.53212067 60.29568665 12.77420227 60.61676392 11.99331665 60.9475708 C10.57851898 61.55286892 9.16744913 62.16699948 7.76132202 62.79217529 C2.14406695 65.20336511 -3.21767885 66.68245613 -9.3125 65.1875 C-15.69929724 62.02366989 -23.2472235 55.5964342 -26 49 C-27.09426159 42.94685122 -25.83362394 38.74083402 -22.44458008 33.72338867 C-21.94724365 33.03092041 -21.44990723 32.33845215 -20.9375 31.625 C-19.91894347 30.13433821 -18.90071395 28.64345294 -17.8828125 27.15234375 C-17.38555664 26.43933105 -16.88830078 25.72631836 -16.37597656 24.99169922 C-14.61115613 22.43715608 -12.95620486 19.82125035 -11.3125 17.1875 C-7.63957147 11.39283121 -3.82597628 5.69424522 0 0 Z " fill="#BAC8DC" transform="translate(162,387)"/>
<path d="M0 0 C3.67354862 3.48151764 6.53244245 6.98277949 9.35546875 11.21875 C9.93703484 12.08929016 9.93703484 12.08929016 10.53034973 12.97741699 C11.34228812 14.19581097 12.15139362 15.41609719 12.95776367 16.63818359 C14.18735512 18.49978065 15.42791216 20.35370263 16.66992188 22.20703125 C17.46160031 23.39799717 18.25263815 24.58938922 19.04296875 25.78125 C19.75477295 26.85439453 20.46657715 27.92753906 21.19995117 29.03320312 C24.14887086 33.89354112 25.55746996 37.25212303 24.5859375 43.02734375 C22.48057025 50.11541349 14.63290898 54.82267458 9 59 C4.34892344 61.32553828 -1.21643805 60.51956431 -6.05566406 59.10986328 C-9.44919279 57.8384543 -12.78709527 56.47346745 -16.125 55.0625 C-17.99101975 54.29698437 -19.85949662 53.53767483 -21.72801208 52.77827454 C-22.99087154 52.26430555 -24.25288761 51.74825944 -25.51405334 51.23014832 C-31.35737421 48.83238414 -37.26154964 46.62084915 -43.1875 44.4375 C-51.78732416 41.23905038 -60.34539297 37.94388648 -68.875 34.5625 C-69.9580542 34.13702881 -71.0411084 33.71155762 -72.15698242 33.27319336 C-73.65322144 32.67583374 -73.65322144 32.67583374 -75.1796875 32.06640625 C-76.50589111 31.5396228 -76.50589111 31.5396228 -77.85888672 31.00219727 C-80 30 -80 30 -82 28 C-81.40276123 27.90501221 -80.80552246 27.81002441 -80.19018555 27.7121582 C-51.71037405 23.12391053 -24.29559398 16.19706266 0 0 Z " fill="#C2CFE3" transform="translate(577,390)"/>
<path d="M0 0 C3.32894562 1.13671314 4.51219401 1.97629153 6.5625 4.875 C9.39692772 13.49037917 10.14033255 23.09370574 6.5 31.5 C4.5010168 35.06068882 3.93376729 35.72519039 0 37.3125 C-3.4375 36.875 -3.4375 36.875 -5.75 34.9375 C-10.05749675 27.12019109 -10.28333937 18.63911878 -9.4375 9.875 C-7.97825272 5.07314195 -5.77657054 -0.29623439 0 0 Z " fill="#FDFEFE" transform="translate(140.4375,190.125)"/>
<path d="M0 0 C0.721875 0.70125 1.44375 1.4025 2.1875 2.125 C2.1875 2.785 2.1875 3.445 2.1875 4.125 C0.73730469 4.27195313 0.73730469 4.27195313 -0.7421875 4.421875 C-11.72819277 5.68363402 -22.12771496 7.36479315 -29.8125 16.125 C-31.27675533 18.80979876 -31.27675533 18.80979876 -31.8125 21.125 C-34.60703906 18.64096528 -36.21959412 15.89567154 -38 12.625 C-38.52980469 11.6659375 -39.05960938 10.706875 -39.60546875 9.71875 C-40.8125 7.125 -40.8125 7.125 -40.8125 4.125 C-37.93855502 3.30860682 -35.0634487 2.49677859 -32.1875 1.6875 C-31.37925781 1.45740234 -30.57101562 1.22730469 -29.73828125 0.99023438 C-7.96861788 -5.11589072 -7.96861788 -5.11589072 0 0 Z " fill="#FBF4FE" transform="translate(671.8125,155.875)"/>
<path d="M0 0 C1.07765625 0.00902344 2.1553125 0.01804688 3.265625 0.02734375 C4.08546875 0.03894531 4.9053125 0.05054688 5.75 0.0625 C6.08 0.7225 6.41 1.3825 6.75 2.0625 C3.17212756 8.11736106 -1.30616192 12.12468472 -8.25 14.0625 C-11.27066751 14.31509937 -14.24067629 14.46453146 -17.25 14.0625 C-19.25 12.0625 -19.25 12.0625 -19.640625 9.640625 C-19.25 7.0625 -19.25 7.0625 -17.421875 5.296875 C-16.62265625 4.80703125 -15.8234375 4.3171875 -15 3.8125 C-14.21109375 3.31234375 -13.4221875 2.8121875 -12.609375 2.296875 C-8.33395103 0.06006378 -4.80377559 -0.05221495 0 0 Z " fill="#FBF4FE" transform="translate(669.25,169.9375)"/>
</svg>
